<svg viewBox="0 0 410 404" fill="none" xmlns="http://www.w3.org/2000/svg"><path d="M399.641 59.5246L215.643 388.545C211.844 395.338 202.084 395.378 198.228 388.618L10.5817 59.5246C6.38087 52.1698 12.6802 43.2435 21.0281 44.7761L205.223 77.6263C206.398 77.8388 207.601 77.8388 208.776 77.6263L389.119 44.8058C397.439 43.2866 403.768 52.1571 399.641 59.5246Z" fill="url(#vite_grad1)"/><path d="M292.965 1.5744L156.801 28.2552C154.563 28.6937 152.906 30.5903 152.862 32.8684L150.635 154.6C150.579 157.558 153.18 159.757 156.085 159.128L192.626 151.357C195.888 150.657 198.783 153.317 198.288 156.604L187.952 224.638C187.431 228.051 190.616 230.751 193.945 229.761L215.503 223.415C218.839 222.422 222.028 225.131 221.497 228.549L205.539 329.13C204.97 332.765 209.798 334.692 211.87 331.622L214.257 328.04L341.472 107.556C343.196 104.567 340.956 100.867 337.516 101.108L299.574 103.7C296.151 103.938 293.896 100.229 295.563 97.2079L324.374 44.8603C326.045 41.8335 323.778 38.1172 320.338 38.3713L292.965 1.5744Z" fill="url(#vite_grad2)"/><defs><linearGradient id="vite_grad1" x1="6.00017" y1="32.9999" x2="235" y2="344" gradientUnits="userSpaceOnUse"><stop stop-color="#41D1FF"/><stop offset="1" stop-color="#BD34FE"/></linearGradient><linearGradient id="vite_grad2" x1="194.651" y1="8.81818" x2="236.076" y2="292.989" gradientUnits="userSpaceOnUse"><stop stop-color="#FF3E00"/><stop offset="0.4" stop-color="#FF8A00" stop-opacity="0.8"/><stop offset="1" stop-color="#FFB800" stop-opacity="0"/></linearGradient></defs></svg>
